# xmcd
#
# Track frame offsets: 
#        150
#        21083
#        37763
#        59596
#        77926
#        99286
#        116124
#        135279
#        151584
#        168039
#
# Disc length: 2377 seconds
#
# Revision: 0
# Processed by: cddbd v1.5.2PL0 Copyright (c) Steve Scherf et al.
# Submitted via: ExactAudioCopy v1.1
#
DISCID=6a09470a
DTITLE=Alannah Myles - Alannah Myles
DYEAR=1989
DGENRE=Pop Female Singer-Songwriter
TTITLE0=Still Got This Thing
TTITLE1=Love Is
TTITLE2=Black Velvet
TTITLE3=Rock This Joint
TTITLE4=Lover Of Mine
TTITLE5=Kick Start My Heart
TTITLE6=If You Want To
TTITLE7=Just One Kiss
TTITLE8=Who Loves You
TTITLE9=Hurry Make Love
EXTD=
EXTT0=
EXTT1=
EXTT2=
EXTT3=
EXTT4=
EXTT5=
EXTT6=
EXTT7=
EXTT8=
EXTT9=
PLAYORDER=
